HIERARCHY
ROOT reference
{
  OFFSET -65.3212 -1.93545 -120.338
  CHANNELS 6 Xposition Yposition Zposition Zrotation Xrotation Yrotation
  JOINT Hips
  {
    OFFSET 0 78.7191 0
    CHANNELS 6 Xposition Yposition Zposition Zrotation Xrotation Yrotation
    JOINT Chest
    {
      OFFSET 0 8.7983 -4.7612
      CHANNELS 6 Xposition Yposition Zposition Zrotation Xrotation Yrotation
      JOINT Chest2
      {
        OFFSET 0 8.0291 0.4195
        CHANNELS 6 Xposition Yposition Zposition Zrotation Xrotation Yrotation
        JOINT Chest3
        {
          OFFSET 0 9.9351 -2.2114
          CHANNELS 6 Xposition Yposition Zposition Zrotation Xrotation Yrotation
          JOINT Neck
          {
            OFFSET 0 22.3885 -0.4656
            CHANNELS 6 Xposition Yposition Zposition Zrotation Xrotation Yrotation
            JOINT Head
            {
              OFFSET -0.0001 12.643 3.4389
              CHANNELS 6 Xposition Yposition Zposition Zrotation Xrotation Yrotation
              End Site
              {
                OFFSET 0.0001 17.6655 0.5274
              }
            }
          }
          JOINT LeftCollar
          {
            OFFSET 2.2603 21.606 7.4023
            CHANNELS 6 Xposition Yposition Zposition Zrotation Xrotation Yrotation
            JOINT LeftShoulder
            {
              OFFSET 13.5163 -1.1332 -5.0146
              CHANNELS 6 Xposition Yposition Zposition Zrotation Xrotation Yrotation
              JOINT LeftElbow
              {
                OFFSET -0.0995 -28.05 -0.2431
                CHANNELS 6 Xposition Yposition Zposition Zrotation Xrotation Yrotation
                JOINT LeftWrist
                {
                  OFFSET 0.0679 -23.3996 -0.1402
                  CHANNELS 6 Xposition Yposition Zposition Zrotation Xrotation Yrotation
                  JOINT LeftFinger1
                  {
                    OFFSET 0.7932 -9.069 2.5189
                    CHANNELS 6 Xposition Yposition Zposition Zrotation Xrotation Yrotation
                    JOINT LeftFinger11
                    {
                      OFFSET -0.8272 -3.3923 0.5977
                      CHANNELS 6 Xposition Yposition Zposition Zrotation Xrotation Yrotation
                      JOINT LeftFinger12
                      {
                        OFFSET -0.5649 -2.3158 0.4082
                        CHANNELS 6 Xposition Yposition Zposition Zrotation Xrotation Yrotation
                        End Site
                        {
                          OFFSET -0.4919 -1.6479 0.2673
                        }
                      }
                    }
                  }
                  JOINT LeftFinger2
                  {
                    OFFSET 0.9159 -9.2044 0.2193
                    CHANNELS 6 Xposition Yposition Zposition Zrotation Xrotation Yrotation
                    JOINT LeftFinger21
                    {
                      OFFSET 0.0117 -4.1944 -0.0248
                      CHANNELS 6 Xposition Yposition Zposition Zrotation Xrotation Yrotation
                      JOINT LeftFinger22
                      {
                        OFFSET 0.0071 -2.3249 -0.0142
                        CHANNELS 6 Xposition Yposition Zposition Zrotation Xrotation Yrotation
                        End Site
                        {
                          OFFSET -0.1475 -2.0882 0.0028
                        }
                      }
                    }
                  }
                  JOINT LeftFinger3
                  {
                    OFFSET 0.6113 -8.7231 -2.0637
                    CHANNELS 6 Xposition Yposition Zposition Zrotation Xrotation Yrotation
                    JOINT LeftFinger31
                    {
                      OFFSET -0.1927 -3.8059 -0.2383
                      CHANNELS 6 Xposition Yposition Zposition Zrotation Xrotation Yrotation
                      JOINT LeftFinger32
                      {
                        OFFSET -0.1091 -2.1688 -0.1362
                        CHANNELS 6 Xposition Yposition Zposition Zrotation Xrotation Yrotation
                        End Site
                        {
                          OFFSET -0.2358 -1.9176 -0.0906
                        }
                      }
                    }
                  }
                  JOINT LeftFinger4
                  {
                    OFFSET -0.6151 -8.0947 -3.5641
                    CHANNELS 6 Xposition Yposition Zposition Zrotation Xrotation Yrotation
                    JOINT LeftFinger41
                    {
                      OFFSET -0.4882 -2.341 -0.6462
                      CHANNELS 6 Xposition Yposition Zposition Zrotation Xrotation Yrotation
                      JOINT LeftFinger42
                      {
                        OFFSET -0.3575 -1.7167 -0.4742
                        CHANNELS 6 Xposition Yposition Zposition Zrotation Xrotation Yrotation
                        End Site
                        {
                          OFFSET -0.4187 -1.5237 -0.3496
                        }
                      }
                    }
                  }
                  JOINT LeftFinger0
                  {
                    OFFSET -1.42 -1.8761 1.4223
                    CHANNELS 6 Xposition Yposition Zposition Zrotation Xrotation Yrotation
                    JOINT LeftFinger01
                    {
                      OFFSET -1.1471 -3.4929 2.6334
                      CHANNELS 6 Xposition Yposition Zposition Zrotation Xrotation Yrotation
                      JOINT LeftFinger02
                      {
                        OFFSET -0.823 -2.3 1.6571
                        CHANNELS 6 Xposition Yposition Zposition Zrotation Xrotation Yrotation
                        End Site
                        {
                          OFFSET -0.5822 -1.6914 1.1582
                        }
                      }
                    }
                  }
                }
              }
            }
          }
          JOINT RightCollar
          {
            OFFSET -2.2603 21.606 7.4023
            CHANNELS 6 Xposition Yposition Zposition Zrotation Xrotation Yrotation
            JOINT RightShoulder
            {
              OFFSET -13.5187 -1.1334 -5.0155
              CHANNELS 6 Xposition Yposition Zposition Zrotation Xrotation Yrotation
              JOINT RightElbow
              {
                OFFSET 0.0994 -28.0499 -0.2431
                CHANNELS 6 Xposition Yposition Zposition Zrotation Xrotation Yrotation
                JOINT RightWrist
                {
                  OFFSET -0.0679 -23.3996 -0.1402
                  CHANNELS 6 Xposition Yposition Zposition Zrotation Xrotation Yrotation
                  JOINT RightFinger1
                  {
                    OFFSET -0.7932 -9.0691 2.5189
                    CHANNELS 6 Xposition Yposition Zposition Zrotation Xrotation Yrotation
                    JOINT RightFinger11
                    {
                      OFFSET 0.8272 -3.3923 0.5977
                      CHANNELS 6 Xposition Yposition Zposition Zrotation Xrotation Yrotation
                      JOINT RightFinger12
                      {
                        OFFSET 0.565 -2.3158 0.4082
                        CHANNELS 6 Xposition Yposition Zposition Zrotation Xrotation Yrotation
                        End Site
                        {
                          OFFSET 0.4919 -1.6479 0.2673
                        }
                      }
                    }
                  }
                  JOINT RightFinger2
                  {
                    OFFSET -0.916 -9.2044 0.2193
                    CHANNELS 6 Xposition Yposition Zposition Zrotation Xrotation Yrotation
                    JOINT RightFinger21
                    {
                      OFFSET -0.0117 -4.1944 -0.0248
                      CHANNELS 6 Xposition Yposition Zposition Zrotation Xrotation Yrotation
                      JOINT RightFinger22
                      {
                        OFFSET -0.0071 -2.3249 -0.0142
                        CHANNELS 6 Xposition Yposition Zposition Zrotation Xrotation Yrotation
                        End Site
                        {
                          OFFSET 0.1475 -2.0882 0.0028
                        }
                      }
                    }
                  }
                  JOINT RightFinger3
                  {
                    OFFSET -0.6113 -8.7231 -2.0637
                    CHANNELS 6 Xposition Yposition Zposition Zrotation Xrotation Yrotation
                    JOINT RightFinger31
                    {
                      OFFSET 0.1927 -3.8059 -0.2383
                      CHANNELS 6 Xposition Yposition Zposition Zrotation Xrotation Yrotation
                      JOINT RightFinger32
                      {
                        OFFSET 0.1091 -2.1688 -0.1362
                        CHANNELS 6 Xposition Yposition Zposition Zrotation Xrotation Yrotation
                        End Site
                        {
                          OFFSET 0.2358 -1.9176 -0.0906
                        }
                      }
                    }
                  }
                  JOINT RightFinger4
                  {
                    OFFSET 0.6151 -8.0947 -3.564
                    CHANNELS 6 Xposition Yposition Zposition Zrotation Xrotation Yrotation
                    JOINT RightFinger41
                    {
                      OFFSET 0.4882 -2.341 -0.6462
                      CHANNELS 6 Xposition Yposition Zposition Zrotation Xrotation Yrotation
                      JOINT RightFinger42
                      {
                        OFFSET 0.3574 -1.7166 -0.4742
                        CHANNELS 6 Xposition Yposition Zposition Zrotation Xrotation Yrotation
                        End Site
                        {
                          OFFSET 0.4187 -1.5237 -0.3496
                        }
                      }
                    }
                  }
                  JOINT RightFinger0
                  {
                    OFFSET 1.4199 -1.8761 1.4221
                    CHANNELS 6 Xposition Yposition Zposition Zrotation Xrotation Yrotation
                    JOINT RightFinger01
                    {
                      OFFSET 1.1472 -3.4929 2.6336
                      CHANNELS 6 Xposition Yposition Zposition Zrotation Xrotation Yrotation
                      JOINT RightFinger02
                      {
                        OFFSET 0.8229 -2.3 1.6571
                        CHANNELS 6 Xposition Yposition Zposition Zrotation Xrotation Yrotation
                        End Site
                        {
                          OFFSET 0.5822 -1.6914 1.1582
                        }
                      }
                    }
                  }
                }
              }
            }
          }
        }
      }
    }
    JOINT RightHip
    {
      OFFSET -9.412 3.9771 -0.7758
      CHANNELS 6 Xposition Yposition Zposition Zrotation Xrotation Yrotation
      JOINT RightKnee
      {
        OFFSET -0.7531 -40.938 0
        CHANNELS 6 Xposition Yposition Zposition Zrotation Xrotation Yrotation
        JOINT RightAnkle
        {
          OFFSET 0 -40.1986 0
          CHANNELS 6 Xposition Yposition Zposition Zrotation Xrotation Yrotation
          JOINT RightToe
          {
            OFFSET 0 -4.4182 9.239
            CHANNELS 6 Xposition Yposition Zposition Zrotation Xrotation Yrotation
            End Site
            {
              OFFSET 0 0 6.1981
            }
          }
        }
      }
    }
    JOINT LeftHip
    {
      OFFSET 9.4119 3.9773 -0.7758
      CHANNELS 6 Xposition Yposition Zposition Zrotation Xrotation Yrotation
      JOINT LeftKnee
      {
        OFFSET 0.7532 -40.9383 0
        CHANNELS 6 Xposition Yposition Zposition Zrotation Xrotation Yrotation
        JOINT LeftAnkle
        {
          OFFSET 0 -40.1986 0
          CHANNELS 6 Xposition Yposition Zposition Zrotation Xrotation Yrotation
          JOINT LeftToe
          {
            OFFSET 0 -4.4182 9.239
            CHANNELS 6 Xposition Yposition Zposition Zrotation Xrotation Yrotation
            End Site
            {
              OFFSET 0 0 6.1981
            }
          }
        }
      }
    }
  }
}
MOTION
Frames:	4
Frame Time:	0.0333333
-38.2961 -3.48359 -49.6349 0 0 -0 7.10543e-015 78.7191 0 -0.635286 6.14508 101.884 0 8.7983 -4.7612 -0.000423921 -2.15287 1.02167 0 8.0291 0.4195 0.0376462 -4.30543 2.04552 0 9.9351 -2.2114 0.0376402 -4.30542 2.04549 0 22.3885 -0.4656 -0.57056 13.6137 -8.57512 -0.0001 12.643 3.4389 -6.33081 -1.10016 -8.80723 2.2603 21.606 7.4023 0.496449 0.855988 -4.26271 13.5163 -1.1332 -5.0146 4.06424 31.6631 27.2211 -0.0995 -28.05 -0.2431 -10.375 -22.1194 -10.323 0.0679 -23.3996 -0.1402 -12.0605 1.4088 41.7644 0.7932 -9.069 2.5189 -2.21223e-005 0.000191028 0.000155479 -0.8272 -3.3923 0.5977 0.000319917 -5.08332e-005 -0.000243692 -0.5649 -2.3158 0.4082 -0.000173339 6.10921e-005 2.8722e-005 0.9159 -9.2044 0.2193 2.03446 -1.26684 0.222447 0.0117 -4.1944 -0.0248 -0.167741 -0.876202 0.196071 0.0071 -2.3249 -0.0142 2.03555 -1.26784 0.222676 0.6113 -8.7231 -2.0637 2.14056 -6.28968 2.63722 -0.1927 -3.8059 -0.2383 -0.361952 -2.21293 0.750563 -0.1091 -2.1688 -0.1362 4.5101 -3.05778 0.715162 -0.6151 -8.0947 -3.5641 11.4153 -7.35223 2.6052 -0.4882 -2.341 -0.6462 -0.0648795 -1.73709 1.50188 -0.3575 -1.7167 -0.4742 2.78869 -1.86625 0.506468 -1.42 -1.8761 1.4223 0.000243267 2.43874e-006 -0.000400054 -1.1471 -3.4929 2.6334 -0.000190199 1.9715e-005 0.000283489 -0.823 -2.3 1.6571 -0.000170076 4.55466e-005 -3.89515e-006 -2.2603 21.606 7.4023 -44.4584 -1.12586 12.6009 -13.5187 -1.1334 -5.0155 -93.0688 9.493 -52.0616 0.0994 -28.0499 -0.2431 -3.50087 -25.847 -35.2699 -0.0679 -23.3996 -0.1402 5.23212 6.57339 -23.1099 -0.7932 -9.0691 2.5189 -26.3168 9.86705 9.08438 0.8272 -3.3923 0.5977 39.4242 12.0338 -4.97719 0.565 -2.3158 0.4082 38.7304 11.8651 -4.82268 -0.916 -9.2044 0.2193 -2.23349 10.2523 5.03864 -0.0117 -4.1944 -0.0248 52.3753 15.6205 -6.40196 -0.0071 -2.3249 -0.0142 44.0892 13.7161 -4.48631 -0.6113 -8.7231 -2.0637 15.0073 7.587 -5.7056 0.1927 -3.8059 -0.2383 37.2884 13.8497 -2.53197 0.1091 -2.1688 -0.1362 38.5715 14.2637 -2.77359 0.6151 -8.0947 -3.564 23.054 4.37546 -8.90254 0.4882 -2.341 -0.6462 30.7535 11.5468 -0.514512 0.3574 -1.7166 -0.4742 30.6849 11.5225 -0.5062 1.4199 -1.8761 1.4221 7.91153 0.880271 52.6243 1.1472 -3.4929 2.6336 -0.671227 1.5291 0.489011 0.8229 -2.3 1.6571 -4.02432 8.62952 3.04558 -9.412 3.9771 -0.7758 -4.16321 -16.8131 45.607 -0.7531 -40.938 0 14.7163 47.0038 -7.84118 0 -40.1986 -3.55271e-015 -14.3928 -3.17501 -22.4257 0 -4.4182 9.239 25.285 -3.25482 -8.10979 9.4119 3.9773 -0.7758 -22.7031 3.26297 -2.0272 0.7532 -40.9383 0 0.441284 0.0867738 0.61978 0 -40.1986 -7.10543e-015 8.83493 -2.46175 -5.44001 -7.10543e-015 -4.4182 9.239 5.77033 5.01455 -0.811554 
-38.4527 -3.58264 -49.8414 0 0 -0 7.10543e-015 78.7191 0 -0.786489 6.53702 102.196 0 8.7983 -4.7612 -0.0736986 -2.16807 1.12418 0 8.0291 0.4195 -0.104897 -4.33718 2.24791 -1.42109e-014 9.9351 -2.2114 -0.10489 -4.33717 2.24795 0 22.3885 -0.4656 -0.455148 14.293 -8.438 -0.0001 12.643 3.4389 -6.71172 -1.06225 -8.64311 2.2603 21.606 7.4023 0.0811253 0.862621 -4.09661 13.5163 -1.1332 -5.0146 4.03748 31.7581 27.3165 -0.0995 -28.05 -0.2431 -10.3067 -22.2336 -10.1581 0.0679 -23.3996 -0.1402 -11.9862 1.42043 41.9196 0.7932 -9.069 2.5189 -0.0675492 0.0905594 -0.0181218 -0.8272 -3.3923 0.5977 -0.0497163 0.0310285 -0.00292494 -0.5649 -2.3158 0.4082 -0.0618589 0.0384462 -0.00324385 0.9159 -9.2044 0.2193 1.97214 -1.21958 0.199017 0.0117 -4.1944 -0.0248 -0.161545 -0.840535 0.188866 0.0071 -2.3249 -0.0142 1.97468 -1.23007 0.215333 0.6113 -8.7231 -2.0637 2.08147 -6.22903 2.61948 -0.1927 -3.8059 -0.2383 -0.355095 -2.16671 0.737283 -0.1091 -2.1688 -0.1362 4.43811 -3.00968 0.701913 -0.6151 -8.0947 -3.5641 11.2994 -7.29318 2.57824 -0.4882 -2.341 -0.6462 -0.0641027 -1.7016 1.47352 -0.3575 -1.7167 -0.4742 2.72484 -1.82211 0.488331 -1.42 -1.8761 1.4223 0.0232308 0.0526718 -0.013545 -1.1471 -3.4929 2.6334 -0.00768595 -0.00983651 0.0023431 -0.823 -2.3 1.6571 0.0252339 0.0257488 -0.00603721 -2.2603 21.606 7.4023 -44.6584 -1.13412 12.6826 -13.5187 -1.1334 -5.0155 -93.4729 9.86606 -51.9276 0.0994 -28.0499 -0.2431 -3.19988 -24.9331 -34.6262 -0.0679 -23.3996 -0.1402 5.56941 6.25102 -23.1465 -0.7932 -9.0691 2.5189 -26.3168 9.86707 9.0844 0.8272 -3.3923 0.5977 39.4242 12.0338 -4.97718 0.565 -2.3158 0.4082 38.7304 11.8651 -4.82267 -0.916 -9.2044 0.2193 -2.2335 10.2523 5.03865 -0.0117 -4.1944 -0.0248 52.3753 15.6205 -6.40197 -0.0071 -2.3249 -0.0142 44.0892 13.7161 -4.4863 -0.6113 -8.7231 -2.0637 15.0073 7.58703 -5.70558 0.1927 -3.8059 -0.2383 37.2884 13.8497 -2.53195 0.1091 -2.1688 -0.1362 38.5715 14.2637 -2.77359 0.6151 -8.0947 -3.564 23.054 4.37546 -8.90256 0.4882 -2.341 -0.6462 30.7535 11.5468 -0.514492 0.3574 -1.7166 -0.4742 30.6849 11.5225 -0.50621 1.4199 -1.8761 1.4221 7.91155 0.880294 52.6243 1.1472 -3.4929 2.6336 -0.671246 1.5291 0.489006 0.8229 -2.3 1.6571 -4.02433 8.62951 3.04558 -9.412 3.9771 -0.7758 -4.39333 -16.8362 46.5235 -0.7531 -40.938 0 15.0285 47.3996 -8.27768 0 -40.1986 -7.10543e-015 -14.9929 -3.32707 -22.7563 0 -4.4182 9.239 25.4282 -3.09368 -8.29015 9.4119 3.9773 -0.7758 -23.2447 3.26246 -2.20557 0.7532 -40.9383 -7.10543e-015 0.438166 -0.000326216 0.602177 0 -40.1986 7.10543e-015 8.86984 -2.33473 -5.55019 7.10543e-015 -4.4182 9.239 5.94169 5.16282 -0.850084 
-38.5701 -3.68246 -49.9966 0 0 -0 7.10543e-015 78.7191 0 -0.89374 6.83036 102.538 0 8.7983 -4.7612 -0.128925 -2.18033 1.21321 0 8.0291 0.4195 -0.211829 -4.36289 2.42412 0 9.9351 -2.2114 -0.211828 -4.36289 2.42413 0 22.3885 -0.4656 -0.348758 15.0044 -8.31764 -0.0001 12.643 3.4389 -7.01986 -1.03171 -8.46493 2.2603 21.606 7.4023 -0.0958584 0.870986 -3.89948 13.5163 -1.1332 -5.0146 3.81393 31.7158 27.3935 -0.0995 -28.05 -0.2431 -10.2252 -22.4199 -9.85683 0.0679 -23.3996 -0.1402 -12.1773 1.40914 42.1852 0.7932 -9.069 2.5189 -0.262116 0.350916 -0.070604 -0.8272 -3.3923 0.5977 -0.201838 0.123391 -0.00984076 -0.5649 -2.3158 0.4082 -0.239566 0.148992 -0.0124907 0.9159 -9.2044 0.2193 1.79258 -1.0833 0.131707 0.0117 -4.1944 -0.0248 -0.143776 -0.737817 0.167783 0.0071 -2.3249 -0.0142 1.79928 -1.12127 0.19454 0.6113 -8.7231 -2.0637 1.91144 -6.05413 2.56849 -0.1927 -3.8059 -0.2383 -0.335302 -2.03382 0.698431 -0.1091 -2.1688 -0.1362 4.23074 -2.871 0.664067 -0.6151 -8.0947 -3.5641 10.9659 -7.12263 2.50137 -0.4882 -2.341 -0.6462 -0.0617003 -1.59469 1.38776 -0.3575 -1.7167 -0.4742 2.54234 -1.7029 0.458226 -1.42 -1.8761 1.4223 0.089406 0.204356 -0.0512077 -1.1471 -3.4929 2.6334 -0.0290962 -0.0382851 0.00825852 -0.823 -2.3 1.6571 0.0647576 0.0862422 -0.0180066 -2.2603 21.606 7.4023 -44.7956 -1.1308 12.6288 -13.5187 -1.1334 -5.0155 -93.9345 9.96958 -52.0353 0.0994 -28.0499 -0.2431 -2.90664 -23.9296 -34.4791 -0.0679 -23.3996 -0.1402 5.85969 5.9865 -22.4414 -0.7932 -9.0691 2.5189 -26.3168 9.86705 9.08439 0.8272 -3.3923 0.5977 39.4242 12.0338 -4.97717 0.565 -2.3158 0.4082 38.7304 11.8651 -4.82265 -0.916 -9.2044 0.2193 -2.23349 10.2523 5.03863 -0.0117 -4.1944 -0.0248 52.3753 15.6205 -6.40196 -0.0071 -2.3249 -0.0142 44.0892 13.7161 -4.48629 -0.6113 -8.7231 -2.0637 15.0073 7.587 -5.7056 0.1927 -3.8059 -0.2383 37.2884 13.8497 -2.53196 0.1091 -2.1688 -0.1362 38.5715 14.2637 -2.77361 0.6151 -8.0947 -3.564 23.054 4.37545 -8.90257 0.4882 -2.341 -0.6462 30.7535 11.5468 -0.514486 0.3574 -1.7166 -0.4742 30.6849 11.5225 -0.506204 1.4199 -1.8761 1.4221 7.91155 0.880269 52.6243 1.1472 -3.4929 2.6336 -0.671218 1.52911 0.489017 0.8229 -2.3 1.6571 -4.02432 8.62952 3.04558 -9.412 3.9771 -0.7758 -4.45948 -16.8551 47.3839 -0.7531 -40.938 0 15.5048 47.9112 -8.83014 0 -40.1986 0 -15.4682 -3.60948 -22.8518 0 -4.4182 9.239 25.5659 -2.81923 -8.51598 9.4119 3.9773 -0.7758 -23.6365 3.25128 -2.24409 0.7532 -40.9383 -7.10543e-015 0.437038 -0.000354034 0.60832 0 -40.1986 0 9.107 -2.26594 -5.89963 0 -4.4182 9.239 5.80477 5.04602 -0.819454 
-38.7051 -3.7718 -50.1627 0 0 -0 7.10543e-015 78.7191 0 -1.04173 7.24399 103.02 0 8.7983 -4.7612 -0.226716 -2.19442 1.2923 1.42109e-014 8.0291 0.4195 -0.404266 -4.39336 2.57855 0 9.9351 -2.2114 -0.404265 -4.39338 2.57855 0 22.3885 -0.4656 -0.26001 15.7246 -8.29742 -0.0001 12.643 3.4389 -7.11533 -0.970183 -8.18011 2.2603 21.606 7.4023 -0.204463 0.87581 -3.77185 13.5163 -1.1332 -5.0146 3.70085 31.6197 27.4509 -0.0995 -28.05 -0.2431 -10.2498 -22.4638 -9.56033 0.0679 -23.3996 -0.1402 -12.0728 1.21502 42.2055 0.7932 -9.069 2.5189 -0.571312 0.765028 -0.15356 -0.8272 -3.3923 0.5977 -0.422545 0.263046 -0.0219557 -0.5649 -2.3158 0.4082 -0.522251 0.324891 -0.0264986 0.9159 -9.2044 0.2193 1.50718 -0.866435 0.0254286 0.0117 -4.1944 -0.0248 -0.115552 -0.576917 0.137245 0.0071 -2.3249 -0.0142 1.52037 -0.948116 0.162097 0.6113 -8.7231 -2.0637 1.64154 -5.77561 2.48798 -0.1927 -3.8059 -0.2383 -0.303484 -1.82376 0.639146 -0.1091 -2.1688 -0.1362 3.90117 -2.65016 0.604945 -0.6151 -8.0947 -3.5641 10.4363 -6.8503 2.38164 -0.4882 -2.341 -0.6462 -0.0574947 -1.44019 1.26401 -0.3575 -1.7167 -0.4742 2.25174 -1.50977 0.402117 -1.42 -1.8761 1.4223 0.195033 0.445611 -0.111602 -1.1471 -3.4929 2.6334 -0.0688816 -0.0911022 0.0191698 -0.823 -2.3 1.6571 0.157858 0.208542 -0.0437538 -2.2603 21.606 7.4023 -44.9441 -1.1208 12.4934 -13.5187 -1.1334 -5.0155 -94.3268 10.336 -51.7792 0.0994 -28.0499 -0.2431 -2.41683 -23.1715 -33.5167 -0.0679 -23.3996 -0.1402 6.12882 5.61545 -22.8704 -0.7932 -9.0691 2.5189 -26.3168 9.86704 9.08439 0.8272 -3.3923 0.5977 39.4242 12.0338 -4.97716 0.565 -2.3158 0.4082 38.7304 11.8651 -4.82267 -0.916 -9.2044 0.2193 -2.23352 10.2523 5.03868 -0.0117 -4.1944 -0.0248 52.3753 15.6205 -6.40194 -0.0071 -2.3249 -0.0142 44.0892 13.7161 -4.48628 -0.6113 -8.7231 -2.0637 15.0073 7.58699 -5.70557 0.1927 -3.8059 -0.2383 37.2884 13.8497 -2.53195 0.1091 -2.1688 -0.1362 38.5715 14.2637 -2.77359 0.6151 -8.0947 -3.564 23.054 4.37543 -8.90255 0.4882 -2.341 -0.6462 30.7535 11.5468 -0.514463 0.3574 -1.7166 -0.4742 30.6849 11.5224 -0.506195 1.4199 -1.8761 1.4221 7.91153 0.880275 52.6243 1.1472 -3.4929 2.6336 -0.671212 1.5291 0.489012 0.8229 -2.3 1.6571 -4.02434 8.6295 3.04557 -9.412 3.9771 -0.7758 -4.77845 -17.014 47.4826 -0.7531 -40.938 0 16.1095 48.5785 -9.4725 0 -40.1986 -3.55271e-015 -15.7984 -3.73535 -22.7485 0 -4.4182 9.239 25.778 -3.00301 -8.57036 9.4119 3.9773 -0.7758 -24.16 3.25008 -2.3242 0.7532 -40.9383 0 0.433204 0.0282715 0.582972 0 -40.1986 7.10543e-015 9.08363 -2.22712 -6.09794 0 -4.4182 9.239 5.80202 5.04061 -0.818472 
